HIERARCHY
ROOT hip
{
  OFFSET 0 0 0
  CHANNELS 6 Xposition Yposition Zposition Zrotation Yrotation Xrotation
  JOINT abdomen
  {
    OFFSET 0 20.6881 -0.73152
    CHANNELS 3 Zrotation Xrotation Yrotation
    JOINT chest
    {
      OFFSET 0 11.7043 -0.48768
      CHANNELS 3 Zrotation Xrotation Yrotation
      JOINT neck
      {
        OFFSET 0 22.1894 -2.19456
        CHANNELS 3 Zrotation Xrotation Yrotation
        JOINT head
        {
          OFFSET -0.24384 7.07133 1.2192
          CHANNELS 3 Zrotation Xrotation Yrotation
          JOINT leftEye
          {
            OFFSET 4.14528 8.04674 8.04672
            CHANNELS 3 Zrotation Xrotation Yrotation
            End Site
            {
              OFFSET 1 0 0
            }
          }
          JOINT rightEye
          {
            OFFSET -3.6576 8.04674 8.04672
            CHANNELS 3 Zrotation Xrotation Yrotation
            End Site
            {
              OFFSET 1 0 0
            }
          }
        }
      }
      JOINT rCollar
      {
        OFFSET -2.68224 19.2634 -4.8768
        CHANNELS 3 Zrotation Xrotation Yrotation
        JOINT rShldr
        {
          OFFSET -8.77824 -1.95073 1.46304
          CHANNELS 3 Zrotation Xrotation Yrotation
          JOINT rForeArm
          {
            OFFSET -28.1742 -1.7115 0.48768
            CHANNELS 3 Zrotation Xrotation Yrotation
            JOINT rHand
            {
              OFFSET -22.5879 0.773209 7.07136
              CHANNELS 3 Zrotation Xrotation Yrotation
              JOINT rThumb1
              {
                OFFSET -1.2192 -0.487915 3.41376
                CHANNELS 3 Zrotation Xrotation Yrotation
                JOINT rThumb2
                {
                  OFFSET -3.37035 -0.52449 3.41376
                  CHANNELS 3 Zrotation Xrotation Yrotation
                  End Site
                  {
                    OFFSET -1.78271 -1.18214 1.43049
                  }
                }
              }
              JOINT rIndex1
              {
                OFFSET -7.75947 0.938293 5.60832
                CHANNELS 3 Zrotation Xrotation Yrotation
                JOINT rIndex2
                {
                  OFFSET -2.54057 -0.884171 1.56538
                  CHANNELS 3 Zrotation Xrotation Yrotation
                  End Site
                  {
                    OFFSET -1.62519 -0.234802 1.16502
                  }
                }
              }
              JOINT rMid1
              {
                OFFSET -8.24714 1.18213 3.41376
                CHANNELS 3 Zrotation Xrotation Yrotation
                JOINT rMid2
                {
                  OFFSET -3.10165 -0.590103 1.0647
                  CHANNELS 3 Zrotation Xrotation Yrotation
                  End Site
                  {
                    OFFSET -2.48547 -0.328903 0.83742
                  }
                }
              }
              JOINT rRing1
              {
                OFFSET -8.82822 0.546677 1.51678
                CHANNELS 3 Zrotation Xrotation Yrotation
                JOINT rRing2
                {
                  OFFSET -2.60934 -0.819778 -0.0198488
                  CHANNELS 3 Zrotation Xrotation Yrotation
                  End Site
                  {
                    OFFSET -2.33842 -0.294052 0.168128
                  }
                }
              }
              JOINT rPinky1
              {
                OFFSET -8.27202 -0.0477905 -0.4584
                CHANNELS 3 Zrotation Xrotation Yrotation
                JOINT rPinky2
                {
                  OFFSET -1.82734 -0.647385 -0.700984
                  CHANNELS 3 Zrotation Xrotation Yrotation
                  End Site
                  {
                    OFFSET -1.69225 -0.51767 -0.607171
                  }
                }
              }
            }
          }
        }
      }
      JOINT lCollar
      {
        OFFSET 2.68224 19.2634 -4.8768
        CHANNELS 3 Zrotation Xrotation Yrotation
        JOINT lShldr
        {
          OFFSET 8.77824 -1.95073 1.46304
          CHANNELS 3 Zrotation Xrotation Yrotation
          JOINT lForeArm
          {
            OFFSET 28.1742 -1.7115 0.48768
            CHANNELS 3 Zrotation Xrotation Yrotation
            JOINT lHand
            {
              OFFSET 22.5879 0.773209 7.07136
              CHANNELS 3 Zrotation Xrotation Yrotation
              JOINT lThumb1
              {
                OFFSET 1.2192 -0.487915 3.41376
                CHANNELS 3 Zrotation Xrotation Yrotation
                JOINT lThumb2
                {
                  OFFSET 3.37035 -0.52449 3.41376
                  CHANNELS 3 Zrotation Xrotation Yrotation
                  End Site
                  {
                    OFFSET 1.78271 -1.18214 1.43049
                  }
                }
              }
              JOINT lIndex1
              {
                OFFSET 7.75947 0.938293 5.60832
                CHANNELS 3 Zrotation Xrotation Yrotation
                JOINT lIndex2
                {
                  OFFSET 2.54057 -0.884171 1.56538
                  CHANNELS 3 Zrotation Xrotation Yrotation
                  End Site
                  {
                    OFFSET 1.62519 -0.234802 1.16502
                  }
                }
              }
              JOINT lMid1
              {
                OFFSET 8.24714 1.18213 3.41376
                CHANNELS 3 Zrotation Xrotation Yrotation
                JOINT lMid2
                {
                  OFFSET 3.10165 -0.590103 1.0647
                  CHANNELS 3 Zrotation Xrotation Yrotation
                  End Site
                  {
                    OFFSET 2.48547 -0.328903 0.83742
                  }
                }
              }
              JOINT lRing1
              {
                OFFSET 8.82822 0.546677 1.51678
                CHANNELS 3 Zrotation Xrotation Yrotation
                JOINT lRing2
                {
                  OFFSET 2.60934 -0.819778 -0.0198488
                  CHANNELS 3 Zrotation Xrotation Yrotation
                  End Site
                  {
                    OFFSET 2.33842 -0.294052 0.168128
                  }
                }
              }
              JOINT lPinky1
              {
                OFFSET 8.27202 -0.0477905 -0.4584
                CHANNELS 3 Zrotation Xrotation Yrotation
                JOINT lPinky2
                {
                  OFFSET 1.82734 -0.647385 -0.700984
                  CHANNELS 3 Zrotation Xrotation Yrotation
                  End Site
                  {
                    OFFSET 1.69225 -0.51767 -0.607171
                  }
                }
              }
            }
          }
        }
      }
    }
  }
  JOINT rButtock
  {
    OFFSET -8.77824 4.35084 1.2192
    CHANNELS 3 Zrotation Xrotation Yrotation
    JOINT rThigh
    {
      OFFSET 0 -1.70687 -2.19456
      CHANNELS 3 Zrotation Xrotation Yrotation
      JOINT rShin
      {
        OFFSET 0 -36.8199 0.73152
        CHANNELS 3 Zrotation Xrotation Yrotation
        JOINT rFoot
        {
          OFFSET 0.73152 -45.1104 -5.12064
          CHANNELS 3 Zrotation Xrotation Yrotation
          End Site
          {
            OFFSET -1.1221 -3.69964 12.103
          }
        }
      }
    }
  }
  JOINT lButtock
  {
    OFFSET 8.77824 4.35084 1.2192
    CHANNELS 3 Zrotation Xrotation Yrotation
    JOINT lThigh
    {
      OFFSET 0 -1.70687 -2.19456
      CHANNELS 3 Zrotation Xrotation Yrotation
      JOINT lShin
      {
        OFFSET 0 -36.8199 0.73152
        CHANNELS 3 Zrotation Xrotation Yrotation
        JOINT lFoot
        {
          OFFSET -0.73152 -45.1104 -5.12064
          CHANNELS 3 Zrotation Xrotation Yrotation
          End Site
          {
            OFFSET 1.1221 -3.69964 12.103
          }
        }
      }
    }
  }
}
MOTION
Frames:	4
Frame Time:	0.03333
-4.195 46.7849 -20.4377 -135.770991 67.247428 -132.475119 9.284038 7.024112 88.800948 -4.819593 -5.237698 -82.896333 6.378825 18.35233 66.090397 -27.073919 -10.846701 -52.475798 -12.177916 -0.934951 8.747705 16.420885 -5.735171 -38.289579 1.317139 -14.269 -1.227188 33.821531 -12.92422 -46.329161 157.509522 -44.396512 16.132967 -135.908324 43.653623 114.795465 -172.656114 -12.398383 86.345024 -173.270638 -7.768007 65.764423 -142.678137 4.223522 126.469014 -162.565643 -5.207789 120.34329 -160.364623 2.003053 132.127212 -70.749604 41.132858 44.297509 4.517227 -2.666159 7.598766 146.703965 77.365681 -140.943378 -43.417607 -34.203212 -23.793468 -129.148774 19.190823 -131.561815 156.729457 -35.906511 -169.697781 103.108323 -26.423871 133.659134 98.109467 -55.603527 100.34284 -9.956335 20.45759 -10.554248 -7.14971 -3.280639 2.328791 126.481776 -9.32583 -115.412835 -88.82517 -75.005786 -34.509788 -0.369831 6.570732 -22.284664 -1.039255 -10.26001 1.409391 9.401772 45.001639 -4.708885 10.38029 -24.801845 14.675857 -68.839584 -87.203344 -39.700614 1.215696 1.819806 -10.435936 54.969463 -39.077941 48.96708 -125.985353 65.92468 -40.590089 88.705889 59.765528 -0.0 -37.653096 13.174178 -9.410667 -33.536815 -58.796736 44.756395 -168.228653 77.283405 -12.058786 -149.073262 -15.615295 65.806288 96.398607 17.778875 88.080483 137.460257 23.367647 177.60796
-4.4434000000000005 46.7939 -21.0036 -134.919292 67.649175 -131.674188 11.632006 9.570398 0.0 2.886858 -7.279569 6.253874 1.439458 14.822269 33.962823 -11.062647 -23.189184 -19.835432 -12.775122 -0.989223 8.819209 16.32613 -5.488883 -36.957201 -156.815719 -4.392365 160.394559 -111.553331 40.239981 70.050751 170.454261 51.799327 -62.509407 -12.596068 -26.649158 -7.686056 -169.475949 -9.835992 86.804442 52.942676 -48.147515 54.824515 -11.227478 23.886734 -0.474031 -76.641863 45.249653 59.112073 1.613419 -11.556078 7.505195 23.611882 0.023284 -18.92786 4.953597 -2.245306 7.833605 -120.661308 -60.234305 -131.203436 -143.182026 -27.311115 -121.198418 -138.379375 -17.79045 -108.849883 154.146387 -3.209472 -163.240151 77.813476 -37.606876 88.670664 -7.196331 18.237497 60.141337 -111.421471 -52.876533 -110.91668 76.156704 40.739224 -43.323024 143.92159 -36.9683 -89.021842 -11.282516 -8.727497 2.585867 5.768005 -22.095202 5.092845 159.840243 3.933019 -141.957956 6.502455 13.066841 -10.339731 148.015015 -22.958059 165.808444 141.304153 -39.746385 161.478278 11.626004 73.322866 -45.731926 24.094295 -36.063521 38.421545 -123.573332 64.976502 -42.03861 88.24908 55.951274 -180.0 29.309023 -21.251492 -90.039943 -68.310162 29.160958 -14.054808 -151.570029 75.629027 -25.077986 -152.56268 -14.120107 64.831721 88.370987 14.186175 -15.3941 -123.021115 42.272234 42.687898
-4.6132 46.8774 -21.4972 -136.495682 66.176154 -133.375232 15.608736 7.198562 -77.697199 4.719594 -2.034174 84.296334 2.230025 14.292539 34.221876 -11.393938 -22.105401 -20.532337 -11.138491 -1.184065 12.098415 17.321382 -4.85095 -31.080956 -75.179713 67.806173 77.824416 79.936271 -11.858395 41.221173 178.295823 10.555127 37.757171 -148.140757 32.083929 126.562826 -168.527846 -8.110455 87.637351 -64.864892 -19.146877 23.405307 5.354204 -22.307189 -18.058465 -15.798007 36.084311 20.070021 -118.543901 45.460729 103.281217 13.525323 -7.945254 23.418868 3.240453 -43.185869 -3.438765 -30.477886 -59.936573 -36.799664 -39.671961 -38.060032 -20.987997 -113.193706 -15.158502 -115.341024 79.288671 68.255156 -83.532372 -11.319957 -86.272258 -55.791742 46.616969 69.426481 7.352383 -63.583177 -54.484542 -62.979885 75.396465 38.643662 -44.573338 -16.325948 -18.226802 -10.54344 44.536023 42.058363 -42.093972 156.39408 55.584531 -126.684601 43.04233 53.838947 -36.770535 32.09251 61.655947 -32.684738 145.161642 -12.635914 171.598825 150.186929 14.469117 175.291018 150.563132 50.084753 164.137662 6.209527 -42.501688 14.737867 -2.100688 0.591758 2.724674 -16.038591 9.854834 -0.0 18.28441 36.328185 80.421284 -89.379882 -39.080384 -163.32419 27.82777 5.637281 27.200801 56.629747 -82.703184 -60.604704 -90.327138 -34.102918 171.787173 -144.176433 24.259297 69.505074
-4.7148 46.842800000000004 -21.9468 -137.362053 65.578168 -134.068542 13.593397 8.635463 -1.508921 1.171146 -6.702697 8.670485 8.555323 27.677062 126.026185 -31.084991 24.214507 -104.382701 -9.131517 -1.1098 13.830297 12.523828 -3.894257 -34.428899 -63.164384 -86.382267 -84.55251 138.763237 13.312431 -148.122334 -7.722725 -28.654998 103.118036 -7.854292 -48.305404 -12.708135 5.622242 -4.07848 2.263812 -126.504487 -32.258052 139.366231 -14.849349 29.595003 -0.346957 -165.103486 -10.302915 100.559128 6.810687 -22.351981 6.346649 9.972239 64.80319 -4.912227 0.994932 -37.028867 0.104088 -14.970497 -41.318476 -27.771756 -17.604229 82.405041 38.902417 7.917831 -5.294868 16.031244 159.144394 -47.68994 -168.637674 -72.846165 33.922292 34.470549 83.255563 51.998816 -80.030941 -11.035188 8.258135 -13.055821 -4.682182 2.620794 -0.962213 31.432811 22.753507 -16.862844 150.373666 -35.031757 -124.520015 -143.28727 -67.634394 -52.425222 -0.567962 0.817055 -1.968611 0.986732 10.625059 6.052775 -1.748659 8.380187 1.092065 171.248614 -28.56099 -166.475561 74.530872 -62.11154 65.981967 145.24053 -24.810623 128.822169 15.536423 3.402925 15.88796 -31.435687 14.906146 92.42711 30.324978 -20.918084 -57.713273 -70.693649 59.216965 -20.155434 -2.545969 -3.013325 3.138881 102.946193 -59.258349 -75.680032 -92.81469 -77.153509 -11.294736 121.180252 80.176843 -53.065221
